<?xml version="1.0" standalone="no"?>
<!DOCTYPE svg PUBLIC "-//W3C//DTD SVG 20010904//EN"
 "http://www.w3.org/TR/2001/REC-SVG-20010904/DTD/svg10.dtd">
<svg version="1.0" xmlns="http://www.w3.org/2000/svg"
 width="260.000000pt" height="260.000000pt" viewBox="0 0 260.000000 260.000000"
 preserveAspectRatio="xMidYMid meet">
<metadata>
Created by potrace 1.14, written by Peter Selinger 2001-2017
</metadata>
<g transform="translate(0.000000,260.000000) scale(0.100000,-0.100000)"
fill="#000000" stroke="none">
<path d="M1196 2499 c-477 -40 -888 -366 -1040 -824 -77 -229 -77 -521 0 -750
119 -359 404 -645 765 -768 226 -78 533 -78 758 0 501 172 823 619 823 1143 0
709 -598 1258 -1306 1199z m305 -64 c471 -82 852 -461 934 -929 19 -113 19
-299 0 -412 -71 -406 -370 -752 -765 -886 -118 -40 -233 -58 -369 -58 -141 0
-215 11 -346 51 -180 56 -332 148 -469 285 -221 221 -336 500 -336 814 0 314
115 593 336 814 168 168 375 277 609 321 96 18 304 18 406 0z"/>
<path d="M1225 2379 c-4 -5 1 -19 11 -30 16 -18 16 -19 -1 -19 -13 0 -16 -3
-9 -10 14 -14 44 -2 44 16 0 8 -7 17 -15 20 -14 6 -13 8 2 20 17 13 17 13 -4
14 -12 0 -25 -5 -28 -11z"/>
<path d="M1366 2374 c-19 -18 -19 -20 -6 -45 6 -10 19 -19 30 -19 16 0 40 26
40 44 0 8 -31 36 -40 36 -5 0 -16 -7 -24 -16z m40 -15 c8 -14 -11 -33 -25 -25
-11 7 -4 36 9 36 5 0 12 -5 16 -11z"/>
<path d="M1131 2363 c1 -10 4 -29 8 -43 7 -24 7 -24 19 -5 6 11 12 14 12 8 0
-7 8 -13 17 -13 13 0 14 3 5 12 -7 7 -12 22 -12 35 0 18 -6 23 -25 23 -18 0
-25 -5 -24 -17z"/>
<path d="M1465 2367 c-17 -59 -11 -76 18 -45 9 10 13 18 7 18 -17 0 -11 18 8
22 14 3 12 5 -6 10 -14 4 -25 2 -27 -5z"/>
<path d="M1048 2325 c-2 -19 0 -35 4 -35 4 0 8 5 8 11 0 7 10 9 25 5 29 -7 30
-4 9 29 -23 35 -41 31 -46 -10z"/>
<path d="M1591 2318 c-13 -36 -7 -48 22 -48 20 0 20 0 1 15 -19 14 -19 14 1
15 11 1 14 4 8 7 -7 2 -13 9 -13 14 0 4 7 6 15 3 8 -4 15 -2 15 4 0 5 -9 12
-19 15 -15 4 -22 -2 -30 -25z"/>
<path d="M956 2331 c-3 -5 -1 -22 5 -39 8 -23 15 -29 30 -25 11 3 22 10 26 16
4 6 -2 8 -15 5 -12 -4 -22 -2 -22 3 0 5 5 9 10 9 6 0 10 4 10 10 0 5 -8 7 -17
4 -15 -5 -15 -3 1 10 19 16 19 16 -1 16 -12 0 -24 -4 -27 -9z"/>
<path d="M908 2308 c-5 -12 -13 -15 -24 -11 -13 5 -12 -1 7 -26 22 -30 24 -31
27 -12 2 12 2 31 0 44 -3 19 -4 19 -10 5z"/>
<path d="M1680 2301 c0 -13 -8 -30 -17 -38 -17 -14 -17 -14 1 -9 11 4 24 0 32
-11 12 -17 13 -16 14 8 0 14 6 31 13 38 10 11 9 13 -3 9 -8 -3 -20 2 -27 11
-11 14 -12 13 -13 -8z"/>
<path d="M1756 2264 c-9 -8 -16 -21 -16 -28 0 -17 21 -36 39 -36 11 0 10 3 -4
14 -28 20 -12 50 23 42 26 -6 26 -6 8 9 -25 19 -31 19 -50 -1z"/>
<path d="M753 2234 c-7 -19 30 -59 46 -50 15 9 14 39 -1 54 -17 17 -37 15 -45
-4z m43 -32 c-9 -8 -26 10 -26 26 1 15 2 15 15 -2 8 -11 13 -21 11 -24z"/>
<path d="M1831 2212 c-21 -30 -14 -52 17 -52 12 0 12 3 2 15 -10 12 -9 15 6
15 15 0 16 2 5 9 -11 7 -9 10 10 13 l24 3 -22 13 c-19 11 -24 9 -42 -16z"/>
<path d="M683 2194 c-8 -22 9 -48 36 -52 27 -4 29 28 3 51 -23 21 -31 21 -39
1z m34 -19 c9 -25 -4 -29 -17 -6 -7 15 -7 21 0 21 6 0 13 -7 17 -15z"/>
<path d="M1900 2161 c-20 -30 -20 -30 -1 -40 27 -15 36 -14 22 3 -10 12 -9 20
4 40 24 36 1 33 -25 -3z"/>
<path d="M636 2163 c-9 -10 -7 -25 3 -19 9 6 26 -22 23 -36 -3 -13 15 -9 25 5
8 8 3 18 -17 34 -15 12 -30 19 -34 16z"/>
<path d="M1965 2114 c-13 -20 -14 -28 -4 -40 6 -8 16 -14 21 -14 6 0 5 7 -2
15 -10 13 -10 19 4 33 18 21 21 32 7 32 -5 0 -16 -12 -26 -26z"/>
<path d="M1233 2078 c-24 -10 -43 -24 -43 -30 0 -6 -8 -20 -17 -30 -12 -14
-14 -21 -5 -30 9 -9 17 -7 32 7 23 21 44 15 64 -18 8 -13 3 -24 -24 -52 -26
-27 -31 -38 -22 -47 9 -9 20 -4 47 22 l35 34 35 -34 c27 -26 38 -31 47 -22 9
9 5 20 -21 46 -33 34 -33 34 -15 60 22 30 31 32 56 9 30 -27 44 -3 20 36 -15
25 -80 71 -99 71 -2 0 4 -14 13 -31 15 -31 15 -32 -10 -58 l-26 -26 -27 27
c-26 26 -26 27 -9 53 10 15 16 28 14 29 -2 2 -22 -5 -45 -16z"/>
<path d="M2027 2062 c-21 -22 -24 -31 -15 -40 17 -17 28 -15 21 5 -5 13 -2 15
11 10 14 -6 17 -3 12 9 -4 12 -2 15 9 10 19 -7 20 8 2 23 -10 8 -20 4 -40 -17z"/>
<path d="M530 2064 c-11 -13 -9 -19 15 -42 19 -19 26 -22 22 -9 -5 12 -1 17
13 17 11 0 20 5 20 10 0 6 -6 10 -14 10 -8 0 -16 7 -20 15 -7 19 -20 19 -36
-1z"/>
<path d="M472 2008 c-18 -18 -14 -31 12 -50 23 -16 24 -16 42 4 19 20 19 21
-3 14 -19 -6 -22 -4 -16 11 6 16 5 17 -12 3 -16 -14 -17 -13 -11 8 8 25 5 27
-12 10z"/>
<path d="M2080 1995 c-23 -25 -15 -36 9 -12 10 10 11 7 6 -15 -8 -32 -4 -34
30 -12 29 19 34 40 6 25 -16 -9 -17 -7 -13 14 6 32 -8 32 -38 0z"/>
<path d="M867 2003 c-4 -3 -7 -17 -7 -30 0 -17 5 -23 23 -22 12 0 17 3 10 5
-8 4 -9 13 -3 30 7 18 6 24 -4 24 -7 0 -16 -3 -19 -7z"/>
<path d="M915 2000 c-4 -6 -2 -17 5 -24 8 -11 8 -15 -2 -19 -9 -4 -7 -6 4 -6
23 -1 32 17 18 33 -8 11 -8 15 2 19 9 4 7 6 -4 6 -9 1 -20 -4 -23 -9z"/>
<path d="M960 2000 c0 -5 5 -10 10 -10 6 0 11 -10 11 -22 1 -21 2 -21 6 -3 3
11 10 26 15 33 8 9 4 12 -16 12 -14 0 -26 -4 -26 -10z"/>
<path d="M1020 1979 c0 -26 3 -30 22 -27 26 3 37 36 16 49 -25 17 -38 9 -38
-22z m27 -11 c-3 -8 -6 -5 -6 6 -1 11 2 17 5 13 3 -3 4 -12 1 -19z"/>
<path d="M1529 2008 c0 -2 -2 -16 -3 -31 -2 -26 1 -28 34 -25 25 2 36 8 38 22
5 26 -14 44 -30 27 -11 -10 -9 -15 6 -27 19 -14 19 -14 -2 -14 -15 0 -22 6
-22 19 0 16 -18 41 -21 29z"/>
<path d="M1610 2000 c0 -5 5 -10 12 -10 9 0 9 -3 0 -12 -18 -18 -14 -28 11
-27 12 0 17 3 11 5 -6 3 -9 16 -6 29 3 18 0 25 -12 25 -9 0 -16 -4 -16 -10z"/>
<path d="M1669 2008 c-6 -20 -2 -58 6 -58 7 0 10 12 7 30 -4 25 -9 38 -13 28z"/>
<path d="M1080 1960 c0 -5 5 -10 10 -10 6 0 10 5 10 10 0 6 -4 10 -10 10 -5 0
-10 -4 -10 -10z"/>
<path d="M430 1949 c0 -8 6 -21 13 -28 10 -11 7 -12 -15 -7 -17 4 -28 2 -28
-4 0 -5 1 -10 3 -10 1 0 17 -4 34 -9 43 -12 48 -1 18 39 -14 19 -25 27 -25 19z"/>
<path d="M2137 1923 c-12 -12 -7 -40 9 -54 13 -11 14 -9 9 13 -8 31 19 47 34
20 5 -9 13 -14 17 -10 11 12 -17 38 -41 38 -12 0 -25 -3 -28 -7z"/>
<path d="M359 1849 c-9 -18 -7 -25 9 -41 16 -16 23 -18 41 -9 23 13 28 40 9
59 -19 19 -46 14 -59 -9z m48 -14 c3 -9 3 -18 1 -21 -9 -9 -38 8 -38 22 0 19
29 18 37 -1z"/>
<path d="M2192 1842 c-21 -16 -21 -19 -6 -37 13 -16 15 -17 10 -3 -6 20 10 34
17 16 3 -8 6 -5 6 6 1 16 3 17 18 5 15 -12 16 -12 10 4 -4 10 -7 21 -7 23 0
10 -27 2 -48 -14z"/>
<path d="M451 1609 c-97 -43 -211 -203 -211 -296 0 -60 28 -87 82 -80 35 5 59
17 135 73 l23 16 -16 -37 c-18 -44 -9 -58 32 -53 24 3 31 12 51 63 28 71 96
145 101 110 2 -12 -9 -47 -23 -79 -24 -55 -25 -60 -9 -77 22 -25 50 -24 82 2
23 18 27 19 30 5 6 -26 48 -30 85 -8 33 19 34 19 45 1 14 -22 60 -25 87 -6 15
12 21 11 36 -4 14 -14 24 -16 50 -9 18 5 34 8 36 6 2 -2 -12 -32 -31 -67 -51
-95 -53 -107 -20 -119 37 -15 56 5 94 99 68 164 83 191 131 236 26 25 52 45
58 45 15 0 20 -26 12 -63 -11 -45 -19 -57 -39 -57 -30 -1 -102 -38 -102 -53 0
-35 75 -36 121 -2 19 13 44 32 57 41 12 9 25 14 28 12 2 -3 -20 -57 -51 -119
-52 -105 -54 -115 -39 -126 23 -17 49 -16 63 1 6 7 34 69 61 137 59 146 69
161 120 195 43 29 60 25 60 -12 0 -41 -18 -63 -59 -74 -51 -14 -86 -42 -78
-63 10 -27 68 -21 113 11 22 16 50 34 62 41 20 11 21 10 13 -12 -22 -58 46
-76 129 -33 l44 24 11 -22 c13 -27 56 -32 88 -11 22 14 25 14 30 0 8 -20 61
-19 97 2 26 15 29 15 45 0 21 -21 54 -22 83 -1 20 14 24 14 39 -1 31 -32 153
9 153 51 0 21 -17 17 -56 -12 -19 -15 -37 -25 -39 -22 -3 2 13 47 35 98 22 52
40 97 40 101 0 4 -31 7 -70 7 -65 -1 -72 -3 -110 -35 -22 -20 -50 -54 -61 -77
-33 -64 -79 -108 -79 -73 0 6 18 58 41 115 l41 102 74 0 c93 0 104 15 17 23
-36 4 -68 8 -70 10 -2 2 1 17 7 33 9 24 8 31 -6 41 -30 22 -42 15 -60 -32 -14
-39 -21 -45 -45 -45 l-28 0 15 37 c15 34 15 38 -2 50 -26 19 -36 12 -58 -35
-15 -33 -25 -42 -44 -42 -14 0 -173 7 -355 16 l-330 15 -56 -24 c-31 -13 -65
-28 -76 -33 -12 -5 148 -10 403 -12 232 -1 422 -4 422 -6 0 -14 -65 -154 -79
-170 -26 -29 -112 -69 -124 -57 -17 17 19 59 57 66 22 5 37 15 45 31 15 34 15
34 -19 34 -20 0 -30 5 -30 15 0 18 31 35 64 35 16 0 26 6 26 15 0 19 -39 20
-84 1 -40 -17 -76 -60 -69 -84 3 -13 -4 -22 -23 -30 l-27 -13 7 40 c14 89 -28
114 -111 65 l-44 -25 6 24 c6 20 2 25 -19 29 -30 6 -38 -2 -62 -62 -33 -85
-53 -94 -46 -20 5 57 -8 80 -45 80 -30 0 -60 -15 -96 -49 l-28 -26 16 38 16
38 -37 -3 c-35 -3 -37 -5 -66 -78 -28 -72 -87 -148 -96 -122 -2 6 15 53 38
103 22 51 37 96 32 101 -15 15 -132 -4 -165 -26 -18 -12 -49 -51 -69 -86 -35
-60 -66 -95 -75 -86 -2 2 12 44 32 92 37 93 38 114 7 114 -23 0 -47 -26 -57
-60 -16 -52 -55 -117 -79 -134 -32 -21 -32 -15 0 63 14 35 24 75 22 90 -4 36
-43 39 -91 7 -20 -14 -37 -24 -37 -23 0 1 16 41 36 87 l35 85 -22 18 c-12 10
-26 16 -32 14 -5 -1 -29 -52 -53 -112 -39 -99 -49 -115 -101 -163 -32 -28 -73
-59 -92 -68 -32 -16 -35 -16 -48 2 -36 50 55 243 142 300 34 22 39 14 18 -31
-17 -36 -17 -37 2 -51 28 -21 34 -18 54 29 15 34 17 46 7 61 -20 31 -49 36
-95 15z m1579 -114 c0 -3 -16 -45 -36 -95 -26 -64 -45 -96 -66 -111 -16 -12
-31 -19 -34 -16 -3 3 11 45 31 93 21 49 41 99 46 112 6 15 17 22 34 22 14 0
25 -2 25 -5z m-1000 -60 c0 -56 -69 -165 -106 -165 -35 0 -2 113 48 160 25 23
58 27 58 5z m1230 0 c0 -3 -13 -35 -29 -70 -20 -44 -38 -69 -56 -77 -52 -23
-52 36 0 114 20 30 32 38 55 38 17 0 30 -2 30 -5z"/>
<path d="M836 1564 c-24 -23 -17 -58 12 -62 32 -5 54 16 50 47 -4 32 -38 40
-62 15z"/>
<path d="M1531 1166 c-18 -21 -5 -53 24 -60 37 -9 32 -29 -5 -21 -16 4 -30 3
-30 -2 0 -17 24 -33 50 -33 55 0 70 54 20 73 -35 13 -40 30 -7 25 14 -2 22 2
22 12 0 21 -58 25 -74 6z"/>
<path d="M1660 1115 c0 -51 3 -65 15 -65 9 0 15 9 15 25 0 20 5 25 25 25 20 0
25 -5 25 -25 0 -16 6 -25 15 -25 12 0 15 14 15 65 0 51 -3 65 -15 65 -9 0 -15
-9 -15 -25 0 -20 -5 -25 -25 -25 -20 0 -25 5 -25 25 0 16 -6 25 -15 25 -12 0
-15 -14 -15 -65z"/>
<path d="M1836 1165 c-26 -27 -29 -56 -9 -84 39 -52 116 -30 116 34 0 54 -70
87 -107 50z m69 -50 c0 -25 -4 -30 -25 -30 -16 0 -26 6 -28 18 -6 30 6 49 30
45 18 -2 23 -9 23 -33z"/>
<path d="M1984 1166 c-3 -7 -4 -35 -2 -62 l3 -49 48 -3 c37 -2 47 0 47 12 0
11 -10 16 -30 16 -16 0 -30 5 -30 10 0 6 11 10 25 10 16 0 25 6 25 15 0 9 -9
15 -25 15 -14 0 -25 5 -25 10 0 6 14 10 30 10 20 0 30 5 30 15 0 20 -88 21
-96 1z"/>
<path d="M2132 1168 c-22 -22 -14 -49 18 -61 39 -15 39 -30 -1 -22 -23 5 -30
4 -27 -6 7 -21 33 -32 60 -26 46 12 47 62 2 73 -30 8 -32 26 -1 22 14 -2 22 2
22 12 0 19 -55 26 -73 8z"/>
<path d="M890 825 c0 -34 13 -47 23 -22 4 9 8 8 16 -3 5 -8 13 -11 17 -7 4 3
2 13 -4 20 -9 10 -9 16 0 25 17 17 2 27 -17 12 -10 -8 -15 -9 -15 -1 0 6 -4
11 -10 11 -5 0 -10 -16 -10 -35z"/>
<path d="M980 825 c0 -31 3 -35 25 -35 28 0 35 20 8 21 -15 0 -15 2 2 8 l20 8
-20 5 c-16 5 -17 6 -2 7 27 2 20 21 -8 21 -22 0 -25 -4 -25 -35z"/>
<path d="M1050 825 c0 -19 5 -35 10 -35 6 0 10 7 10 17 0 15 1 15 18 0 27 -24
32 -21 32 18 0 35 -20 51 -20 18 -1 -17 -1 -17 -14 0 -21 27 -36 20 -36 -18z"/>
<path d="M1151 846 c-16 -19 2 -56 28 -56 28 0 47 28 34 48 -13 22 -47 27 -62
8z m44 -15 c7 -12 -12 -24 -25 -16 -11 7 -4 25 10 25 5 0 11 -4 15 -9z"/>
<path d="M1244 848 c-4 -6 1 -17 11 -25 17 -12 18 -13 1 -13 -9 0 -14 -4 -11
-10 10 -15 35 -12 42 6 3 9 0 20 -8 25 -10 6 -10 9 -1 9 6 0 12 5 12 10 0 14
-37 13 -46 -2z"/>
<path d="M1320 825 c0 -19 5 -35 10 -35 6 0 10 7 10 15 0 8 5 15 10 15 6 0 10
-7 10 -15 0 -8 5 -15 10 -15 6 0 10 16 10 35 0 19 -4 35 -10 35 -5 0 -10 -7
-10 -15 0 -8 -4 -15 -10 -15 -5 0 -10 7 -10 15 0 8 -4 15 -10 15 -5 0 -10 -16
-10 -35z"/>
<path d="M1412 835 c-17 -38 -16 -41 23 -41 40 0 40 -2 20 36 -19 37 -28 38
-43 5z"/>
<path d="M1575 833 c10 -41 25 -52 32 -24 l6 25 9 -23 c10 -27 23 -21 36 19 9
24 8 30 -3 30 -7 0 -16 -8 -18 -17 -4 -17 -5 -17 -6 0 0 9 -7 17 -15 17 -8 0
-17 -8 -19 -17 -4 -17 -5 -17 -6 0 0 9 -6 17 -12 17 -7 0 -9 -10 -4 -27z"/>
<path d="M1684 847 c-7 -20 -2 -47 11 -50 14 -3 19 43 6 56 -7 7 -12 6 -17 -6z"/>
<path d="M353 821 c-6 -24 -18 -27 -27 -8 -3 6 -5 3 -3 -8 3 -28 34 -31 42 -4
6 17 9 19 17 8 7 -11 8 -10 6 5 -4 27 -28 32 -35 7z"/>
<path d="M2217 833 c-4 -3 -7 -15 -7 -25 0 -10 -4 -18 -10 -18 -5 0 -14 -10
-21 -21 -9 -18 -7 -25 10 -43 17 -16 25 -18 39 -10 9 6 19 19 21 29 3 18 2 18
-14 1 -16 -16 -19 -16 -34 -2 -13 14 -13 18 -1 30 8 8 26 17 39 21 20 6 23 4
18 -10 -5 -11 -3 -15 5 -13 7 3 13 13 13 24 0 14 -6 19 -27 17 -20 -1 -25 2
-21 13 5 15 1 18 -10 7z"/>
<path d="M1490 794 c0 -8 5 -12 10 -9 6 3 10 10 10 16 0 5 -4 9 -10 9 -5 0
-10 -7 -10 -16z"/>
<path d="M378 772 c-32 -19 -37 -36 -8 -27 22 7 26 -5 8 -23 -20 -20 -1 -25
26 -7 29 19 36 41 10 31 -13 -5 -15 -1 -10 19 7 29 9 29 -26 7z"/>
<path d="M2140 708 c-33 -49 -33 -51 -18 -45 9 3 26 -1 37 -10 31 -21 41 -6
11 17 -29 22 -19 40 11 21 31 -19 38 -3 9 19 -32 25 -32 25 -50 -2z"/>
<path d="M409 694 c-9 -11 -10 -20 -2 -32 15 -24 44 -27 59 -7 28 38 -27 75
-57 39z m49 -16 c-7 -19 -38 -22 -38 -4 0 10 9 16 21 16 12 0 19 -5 17 -12z"/>
<path d="M1120 640 l0 -30 60 0 60 0 0 30 0 30 -60 0 -60 0 0 -30z"/>
<path d="M1362 643 c3 -27 6 -28 61 -31 l57 -3 0 31 0 30 -61 0 c-60 0 -60 0
-57 -27z"/>
<path d="M469 636 c-20 -17 -24 -27 -17 -39 13 -25 27 -21 20 6 -5 20 -4 21
13 7 17 -14 18 -13 12 4 -6 14 -4 17 8 12 18 -7 20 8 3 22 -10 7 -20 4 -39
-12z"/>
<path d="M2086 634 c-32 -31 4 -81 42 -58 23 15 22 44 -4 61 -19 12 -24 12
-38 -3z m44 -35 c0 -12 -27 -11 -35 1 -11 17 5 32 21 19 8 -6 14 -15 14 -20z"/>
<path d="M520 575 c0 -23 -2 -26 -15 -15 -17 14 -21 0 -4 -17 16 -16 39 -5 39
19 0 12 4 16 11 12 7 -4 10 -1 7 7 -3 8 -12 15 -21 17 -13 3 -17 -4 -17 -23z"/>
<path d="M2045 569 c6 -17 4 -20 -12 -15 -11 3 -29 -4 -45 -19 -28 -24 -38
-43 -17 -30 6 4 21 -3 35 -16 27 -25 32 -15 9 18 -20 28 -3 39 20 13 19 -21
43 -17 25 5 -7 8 -7 15 -1 19 5 4 12 2 16 -4 4 -6 11 -8 16 -4 6 4 1 16 -12
30 -28 30 -43 31 -34 3z"/>
<path d="M637 472 c-29 -18 -37 -35 -12 -26 9 4 18 -2 23 -17 9 -24 16 -19 26
23 8 35 -3 40 -37 20z"/>
<path d="M1921 481 c-11 -7 -10 -14 8 -40 25 -35 36 -40 28 -12 -3 15 0 18 17
14 20 -4 20 -4 4 10 -10 8 -18 19 -18 26 0 13 -19 14 -39 2z"/>
<path d="M692 438 c-7 -7 -12 -20 -12 -29 0 -19 27 -45 37 -35 4 4 1 11 -6 16
-21 13 -5 43 19 35 24 -7 27 10 4 19 -22 8 -28 8 -42 -6z"/>
<path d="M1862 438 c-30 -30 11 -85 44 -57 25 21 11 69 -21 69 -6 0 -16 -5
-23 -12z m41 -23 c7 -16 -8 -29 -23 -20 -15 9 -12 35 4 35 8 0 16 -7 19 -15z"/>
<path d="M752 398 c-18 -18 -14 -46 9 -58 27 -15 38 -4 14 14 -22 16 -11 40
17 33 12 -4 18 -1 15 6 -5 17 -40 20 -55 5z"/>
<path d="M1784 385 c-3 -8 -3 -19 1 -25 4 -7 -1 -7 -13 1 -12 7 -24 10 -28 6
-10 -9 13 -57 26 -57 6 0 8 4 5 10 -3 6 1 7 9 4 11 -4 16 0 16 12 0 16 2 16
10 4 17 -27 22 -2 5 29 -17 35 -23 38 -31 16z"/>
<path d="M811 353 c-11 -23 -10 -29 5 -40 10 -7 20 -10 23 -7 3 4 0 9 -6 11
-7 3 -13 9 -13 15 0 6 7 8 15 4 8 -3 15 -1 15 3 0 5 -6 12 -12 14 -7 3 -2 6
12 6 20 1 22 3 10 11 -24 16 -36 12 -49 -17z"/>
<path d="M877 344 c-3 -4 -2 -15 3 -25 8 -13 6 -19 -8 -22 -16 -4 -16 -4 1
-12 28 -12 45 10 28 37 -11 18 -11 20 3 15 9 -4 16 -2 16 3 0 11 -33 14 -43 4z"/>
<path d="M1674 336 c-3 -8 -4 -23 -2 -33 5 -25 61 -25 66 0 7 37 -51 67 -64
33z m44 -23 c-4 -22 -22 -20 -26 1 -2 10 3 16 13 16 10 0 15 -7 13 -17z"/>
<path d="M934 319 c-3 -6 -1 -16 5 -22 16 -16 14 -27 -4 -21 -8 4 -15 1 -15
-5 0 -14 37 -15 45 -1 3 5 1 19 -5 30 -9 16 -8 19 6 13 12 -4 15 -3 10 5 -9
15 -33 15 -42 1z"/>
<path d="M1618 323 c-10 -2 -18 -8 -18 -13 0 -5 6 -7 14 -4 8 3 16 -4 20 -20
9 -38 23 -32 22 9 -1 35 -4 37 -38 28z"/>
<path d="M997 303 c-12 -11 -7 -50 7 -62 19 -16 56 2 56 27 0 32 -43 56 -63
35z m41 -30 c-5 -25 -28 -28 -28 -4 0 12 6 21 16 21 9 0 14 -7 12 -17z"/>
<path d="M1553 294 c-4 -10 1 -20 12 -26 14 -8 15 -12 4 -19 -17 -10 -5 -23
16 -16 20 8 20 47 -1 47 -14 0 -14 3 -4 15 10 12 9 15 -4 15 -9 0 -19 -7 -23
-16z"/>
<path d="M1518 294 c-4 -3 -4 -19 -1 -35 3 -17 1 -29 -4 -29 -6 0 -13 14 -16
30 -4 17 -11 30 -17 30 -13 0 -13 -12 0 -44 11 -29 47 -36 56 -11 7 18 -9 69
-18 59z"/>
<path d="M1076 274 c-3 -9 -6 -25 -6 -37 0 -16 3 -18 12 -9 9 9 14 7 23 -5 11
-14 13 -10 13 25 1 34 -3 42 -18 42 -10 0 -21 -7 -24 -16z"/>
<path d="M1145 249 c-6 -27 -1 -49 9 -38 10 11 17 69 8 69 -6 0 -13 -14 -17
-31z"/>
<path d="M1180 240 c0 -33 3 -40 20 -40 11 0 20 5 20 10 0 6 -6 10 -12 10 -9
0 -8 4 2 10 13 9 13 11 0 20 -13 8 -12 10 3 10 10 0 15 5 12 10 -3 6 -15 10
-26 10 -16 0 -19 -7 -19 -40z"/>
<path d="M1409 264 c-9 -11 -10 -20 -2 -32 12 -20 63 -29 63 -12 0 6 -5 8 -10
5 -15 -9 -40 14 -34 30 3 8 13 16 22 18 13 4 11 5 -4 6 -12 0 -27 -6 -35 -15z"/>
<path d="M1244 258 c-4 -6 0 -16 9 -23 21 -15 22 -29 2 -21 -8 3 -15 1 -15 -4
0 -13 37 -13 45 1 4 5 -1 19 -10 29 -15 17 -15 19 2 23 15 4 14 5 -4 6 -12 0
-25 -4 -29 -11z"/>
</g>
</svg>
